<svg class="circuit-top-group" x="0px" y="0px" viewBox="0 0 126 577" xml:space="preserve">
  <g id="circuit-bottom-left" transform="translate(31.000000, 380.000000) scale(-1, 1) translate(-31.000000, -380.000000) translate(0.000000, 194.000000)">
    <path id="Fill-1" class="st2" d="M-2.3,370.2c-1.6,0.6-2.7,2-2.7,3.8c0,2.2,1.8,4,4,4s4-1.8,4-4c0-1.8-1.1-3.2-2.7-3.8v-49.6
      l13.5-13.5v-94.3l13.5-13.5V13.8c1.6-0.6,2.7-2,2.7-3.8c0-2.2-1.8-4-4-4s-4,1.8-4,4c0,1.8,1.1,3.2,2.7,3.8v184.3l-13.5,13.5V306
      l-13.5,13.5V370.2z" />
    <path id="Fill-4" class="st3" d="M30.2,226c0-2.2-1.8-4-4.1-4s-4.1,1.8-4.1,4c0,1.8,1.2,3.2,2.8,3.8v77.4l13.8,13.4v22.5
      c-1.6,0.6-2.8,2-2.8,3.8c0,2.2,1.8,4,4.1,4s4.1-1.8,4.1-4c0-1.8-1.2-3.2-2.8-3.8v-23.6l-13.8-13.4v-76.3
      C29.1,229.3,30.2,227.8,30.2,226" />
    <path id="Fill-6" class="st3" d="M37.8,256.8V294l11.4,11.2c-0.3,0.5-0.4,1.1-0.4,1.7c0,2.2,1.8,4,4.1,4s4.1-1.8,4.1-4
      c0-2.2-1.8-4-4.1-4c-0.6,0-1.2,0.2-1.8,0.4l-10.6-10.4v-36.1c1.6-0.6,2.8-2,2.8-3.8c0-2.2-1.8-4-4.1-4s-4.1,1.8-4.1,4
      C35,254.8,36.2,256.3,37.8,256.8" />
    <path id="Fill-8" class="st3" d="M39.1,243c2.3,0,4.1-1.8,4.1-4c0-1.8-1.2-3.2-2.8-3.8v-49.4l13.8-13.4v-50.5
      c1.6-0.6,2.8-2,2.8-3.8c0-2.2-1.8-4-4.1-4s-4.1,1.8-4.1,4c0,1.8,1.2,3.2,2.8,3.8v49.4l-13.8,13.4v50.5c-1.6,0.6-2.8,2-2.8,3.8
      C35,241.2,36.8,243,39.1,243" />
  </g>
  <g id="circuit-top-right" transform="translate(53.000000, 0.000000)">
    <path id="Fill-1_1_" class="st5" d="M7.7,370.2c-1.6,0.6-2.7,2-2.7,3.8c0,2.2,1.8,4,4,4s4-1.8,4-4c0-1.8-1.1-3.2-2.7-3.8v-49.6
      l13.5-13.5v-94.3l13.5-13.5V13.8c1.6-0.6,2.7-2,2.7-3.8c0-2.2-1.8-4-4-4c-2.2,0-4,1.8-4,4c0,1.8,1.1,3.2,2.7,3.8v184.3l-13.5,13.5
      V306L7.7,319.5V370.2z" />
    <path id="Fill-4_1_" class="st3" d="M40.2,226c0-2.2-1.8-4-4.1-4s-4.1,1.8-4.1,4c0,1.8,1.2,3.2,2.8,3.8v77.4l13.8,13.4v22.5
      c-1.6,0.6-2.8,2-2.8,3.8c0,2.2,1.8,4,4.1,4s4.1-1.8,4.1-4c0-1.8-1.2-3.2-2.8-3.8v-23.6l-13.8-13.4v-76.3
      C39.1,229.3,40.2,227.8,40.2,226" />
    <path id="Fill-6_1_" class="st3" d="M47.8,256.8V294l11.4,11.2c-0.3,0.5-0.4,1.1-0.4,1.7c0,2.2,1.8,4,4.1,4s4.1-1.8,4.1-4
      c0-2.2-1.8-4-4.1-4c-0.6,0-1.2,0.2-1.8,0.4l-10.6-10.4v-36.1c1.6-0.6,2.8-2,2.8-3.8c0-2.2-1.8-4-4.1-4s-4.1,1.8-4.1,4
      C45,254.8,46.2,256.3,47.8,256.8" />
    <path id="Fill-8_1_" class="st3" d="M49.1,243c2.3,0,4.1-1.8,4.1-4c0-1.8-1.2-3.2-2.8-3.8v-49.4l13.8-13.4v-50.5
      c1.6-0.6,2.8-2,2.8-3.8c0-2.2-1.8-4-4.1-4s-4.1,1.8-4.1,4c0,1.8,1.2,3.2,2.8,3.8v49.4l-13.8,13.4v50.5c-1.6,0.6-2.8,2-2.8,3.8
      C45,241.2,46.8,243,49.1,243" />
  </g>
</svg>

<svg class="circuit-bottom-group" x="0px" y="0px" viewBox="0 0 139 96.5" xml:space="preserve">
  <g id="circuit_right-group" transform="translate(87.000000, 30.500000) scale(-1, 1) rotate(-180.000000) translate(-87.000000, -30.500000) translate(41.000000, 15.000000)">
    <path class="circuit-right-bottom" d="M91.9,28.5c2,0,3.6-1.6,3.6-3.6s-1.6-3.6-3.6-3.6c-0.6,0-1.1,0.1-1.6,0.4l-10.1-9.9
      H43.8l-9.4-9.2c0.2-0.5,0.4-1,0.4-1.5c0-2-1.6-3.6-3.6-3.6s-3.6,1.6-3.6,3.6s1.6,3.6,3.6,3.6c0.6,0,1.1-0.1,1.6-0.4l10.1,9.9h36.4
      l9.4,9.2c-0.2,0.5-0.4,1-0.4,1.5C88.2,26.9,89.8,28.5,91.9,28.5" />
    <path class="circuit-right-top" d="M64.4,26.1c0.5,1.4,1.8,2.4,3.4,2.4c2,0,3.6-1.6,3.6-3.6s-1.6-3.6-3.6-3.6
      c-1.6,0-2.9,1-3.4,2.4H31.9L10.4,2.6c0.2-0.5,0.4-1,0.4-1.5c0-2-1.6-3.6-3.6-3.6S3.6-0.9,3.6,1.1s1.6,3.6,3.6,3.6
      c0.6,0,1.1-0.1,1.6-0.4L31,26.1L64.4,26.1L64.4,26.1z" />
  </g>
  <g id="circuit-left-group" transform="translate(15.500000, 46.000000) rotate(90.000000) translate(-15.500000, -46.000000) translate(-30.500000, 30.500000)">
    <path id="circuit-left-top" class="st0" d="M63.4,25.1c0.5,1.4,1.8,2.4,3.4,2.4c2,0,3.6-1.6,3.6-3.6s-1.6-3.6-3.6-3.6
      c-1.6,0-2.9,1-3.4,2.4H30.9L9.4,1.6c0.2-0.5,0.4-1,0.4-1.5c0-2-1.6-3.6-3.6-3.6S2.6-1.9,2.6,0.1s1.6,3.6,3.6,3.6
      c0.6,0,1.1-0.1,1.6-0.4L30,25.1L63.4,25.1L63.4,25.1z" />
    <path id="circuit-left-bottom" class="st0" d="M90.9,27.5c2,0,3.6-1.6,3.6-3.6s-1.6-3.6-3.6-3.6c-0.6,0-1.1,0.1-1.6,0.4l-10.1-9.9
      H42.8l-9.4-9.2c0.2-0.5,0.4-1,0.4-1.5c0-2-1.6-3.6-3.6-3.6s-3.6,1.6-3.6,3.6s1.6,3.6,3.6,3.6c0.6,0,1.1-0.1,1.6-0.4l10.1,9.9h36.4
      l9.4,9.2c-0.2,0.5-0.4,1-0.4,1.5C87.2,25.9,88.8,27.5,90.9,27.5" />
  </g>
</svg>

<svg class="circuits" x="0px" y="0px" viewBox="0 0 91 448" xml:space="preserve">
  <g id="circuit-left" transform="translate(92.128906, 524.812500)">
    <path class="circ-1" d="M-51.2-437.1c0,2.3,1.8,4.1,4.1,4.1s4.1-1.8,4.1-4.1c0-1.8-1.2-3.3-2.8-3.9v-24.2l-13.8-13.8V-502 c1.6-0.6,2.8-2.1,2.8-3.9c0-2.3-1.8-4.1-4.1-4.1s-4.1,1.8-4.1,4.1c0,1.8,1.2,3.3,2.8,3.9v24.2l13.8,13.8v23.1 C-50.1-440.4-51.2-438.9-51.2-437.1" />
    <path class="circ-2" d="M-59.7-112v-339.6l-13.5-13.7v-27.4l-11.2-11.4c0.3-0.5,0.4-1.1,0.4-1.8c0-2.3-1.8-4.1-4-4.1 c-2.2,0-4,1.8-4,4.1c0,2.3,1.8,4.1,4,4.1c0.6,0,1.2-0.2,1.7-0.4l10.4,10.6v27.4l13.5,13.7V-112c-1.6,0.6-2.7,2.1-2.7,3.9 c0,2.3,1.8,4.1,4,4.1s4-1.8,4-4.1C-57-109.9-58.1-111.4-59.7-112" />
    <path class="circ-3" d="M-17.8-475c1.6-0.6,2.8-2.1,2.8-3.9c0-2.3-1.8-4.1-4.1-4.1s-4.1,1.8-4.1,4.1 c0,1.8,1.2,3.3,2.8,3.9v159.7l-10.6,10.6c-0.5-0.3-1.1-0.4-1.8-0.4c-2.3,0-4.1,1.8-4.1,4.1c0,2.3,1.8,4.1,4.1,4.1s4.1-1.8,4.1-4.1 c0-0.6-0.2-1.2-0.4-1.8l11.4-11.4V-475z" />
    <path class="circ-4" d="M-2-272.9c0-2.3-1.8-4.1-4-4.1s-4,1.8-4,4.1c0,1.8,1.1,3.3,2.7,3.8v33.2 c-1.5,0.6-2.7,2.1-2.7,3.8c0,2.3,1.8,4.1,4,4.1s4-1.8,4-4.1c0-1.8-1.1-3.3-2.7-3.8v-33.2C-3.1-269.6-2-271.1-2-272.9" />
    <path class="circ-5" d="M-16-258.9c0-2.3-1.8-4.1-4-4.1s-4,1.8-4,4.1c0,1.8,1.1,3.3,2.7,3.9v116 c-1.5,0.6-2.7,2.1-2.7,3.9c0,2.3,1.8,4.1,4,4.1s4-1.8,4-4.1c0-1.8-1.1-3.3-2.7-3.9v-116C-17.1-255.6-16-257.1-16-258.9" />
    <path class="circ-6" d="M-31.6-181v-91.7l26.9-27.5V-489c1.6-0.6,2.7-2.1,2.7-3.9c0-2.3-1.8-4.1-4-4.1 c-2.2,0-4,1.8-4,4.1c0,1.8,1.1,3.3,2.7,3.9v187.8l-26.9,27.5v92.8c-1.6,0.6-2.7,2.1-2.7,3.9c0,2.3,1.8,4.1,4,4.1c2.2,0,4-1.8,4-4.1 C-28.9-178.9-30.1-180.4-31.6-181" />
    <path class="circ-7" d="M-70-437.9c0-2.3-1.8-4.1-4-4.1c-2.2,0-4,1.8-4,4.1c0,1.8,1.1,3.3,2.7,3.9v116 c-1.5,0.6-2.7,2.1-2.7,3.9c0,2.3,1.8,4.1,4,4.1c2.2,0,4-1.8,4-4.1c0-1.8-1.1-3.3-2.7-3.9v-116C-71.1-434.6-70-436.1-70-437.9" />
    <path class="circ-8" d="M-37-328.1c0,2.3,1.8,4.1,4,4.1s4-1.8,4-4.1c0-1.8-1.1-3.3-2.7-3.9v-61c1.5-0.6,2.7-2.1,2.7-3.9 c0-2.3-1.8-4.1-4-4.1s-4,1.8-4,4.1c0,1.8,1.1,3.3,2.7,3.9v61C-35.9-331.4-37-329.9-37-328.1" />
    <path class="circ-9" d="M-45.6-85v-324.7l13.5-13.7v-68.6l13.5-13.7V-516c1.6-0.6,2.7-2.1,2.7-3.9c0-2.3-1.8-4.1-4-4.1 c-2.2,0-4,1.8-4,4.1c0,1.8,1.1,3.3,2.7,3.9v9.3L-34.8-493v68.6l-13.5,13.7V-85c-1.6,0.6-2.7,2.1-2.7,3.9c0,2.3,1.8,4.1,4,4.1 c2.2,0,4-1.8,4-4.1C-42.9-82.9-44.1-84.4-45.6-85" />
  </g>
</svg>

<svg version="1.1" class="circuit-no-fill" xmlns="http://www.w3.org/2000/svg" xmlns:xlink="http://www.w3.org/1999/xlink" x="0px" y="0px" viewBox="0 0 96.3 457.3" style="enable-background:new 0 0 96.3 457.3;" xml:space="preserve">
  <g id="circuit-left" transform="translate(92.128906, 524.812500)">
    <path class="st0" d="M-49.2-434.4c0,2.3,1.8,4.1,4.1,4.1s4.1-1.8,4.1-4.1c0-1.8-1.2-3.3-2.8-3.9v-24.2l-13.8-13.8v-23
		c1.6-0.6,2.8-2.1,2.8-3.9c0-2.3-1.8-4.1-4.1-4.1s-4.1,1.8-4.1,4.1c0,1.8,1.2,3.3,2.8,3.9v24.2l13.8,13.8v23.1
		C-48.1-437.7-49.2-436.2-49.2-434.4" />
    <path class="st0" d="M-57.7-109.3v-339.6l-13.5-13.7V-490l-11.2-11.4c0.3-0.5,0.4-1.1,0.4-1.8c0-2.3-1.8-4.1-4-4.1s-4,1.8-4,4.1
		c0,2.3,1.8,4.1,4,4.1c0.6,0,1.2-0.2,1.7-0.4l10.4,10.6v27.4l13.5,13.7v338.5c-1.6,0.6-2.7,2.1-2.7,3.9c0,2.3,1.8,4.1,4,4.1
		s4-1.8,4-4.1C-55-107.2-56.1-108.7-57.7-109.3" />
    <path class="st0" d="M-15.8-472.3c1.6-0.6,2.8-2.1,2.8-3.9c0-2.3-1.8-4.1-4.1-4.1s-4.1,1.8-4.1,4.1c0,1.8,1.2,3.3,2.8,3.9v159.7
		L-29-302c-0.5-0.3-1.1-0.4-1.8-0.4c-2.3,0-4.1,1.8-4.1,4.1c0,2.3,1.8,4.1,4.1,4.1s4.1-1.8,4.1-4.1c0-0.6-0.2-1.2-0.4-1.8l11.4-11.4
		v-160.8H-15.8z" />
    <path class="st0" d="M0-270.2c0-2.3-1.8-4.1-4-4.1s-4,1.8-4,4.1c0,1.8,1.1,3.3,2.7,3.8v33.2c-1.5,0.6-2.7,2.1-2.7,3.8
		c0,2.3,1.8,4.1,4,4.1s4-1.8,4-4.1c0-1.8-1.1-3.3-2.7-3.8v-33.2C-1.1-266.9,0-268.4,0-270.2" />
    <path class="st0" d="M-14-256.2c0-2.3-1.8-4.1-4-4.1s-4,1.8-4,4.1c0,1.8,1.1,3.3,2.7,3.9v116c-1.5,0.6-2.7,2.1-2.7,3.9
		c0,2.3,1.8,4.1,4,4.1s4-1.8,4-4.1c0-1.8-1.1-3.3-2.7-3.9v-116C-15.1-252.9-14-254.4-14-256.2" />
    <path class="st0" d="M-29.6-178.3V-270l26.9-27.5v-188.8c1.6-0.6,2.7-2.1,2.7-3.9c0-2.3-1.8-4.1-4-4.1s-4,1.8-4,4.1
		c0,1.8,1.1,3.3,2.7,3.9v187.8L-32.2-271v92.8c-1.6,0.6-2.7,2.1-2.7,3.9c0,2.3,1.8,4.1,4,4.1s4-1.8,4-4.1
		C-26.9-176.2-28.1-177.7-29.6-178.3" />
    <path class="st0" d="M-68-435.2c0-2.3-1.8-4.1-4-4.1s-4,1.8-4,4.1c0,1.8,1.1,3.3,2.7,3.9v116c-1.5,0.6-2.7,2.1-2.7,3.9
		c0,2.3,1.8,4.1,4,4.1s4-1.8,4-4.1c0-1.8-1.1-3.3-2.7-3.9v-116C-69.1-431.9-68-433.4-68-435.2" />
    <path class="st0" d="M-35-325.4c0,2.3,1.8,4.1,4,4.1s4-1.8,4-4.1c0-1.8-1.1-3.3-2.7-3.9v-61c1.5-0.6,2.7-2.1,2.7-3.9
		c0-2.3-1.8-4.1-4-4.1s-4,1.8-4,4.1c0,1.8,1.1,3.3,2.7,3.9v61C-33.9-328.7-35-327.2-35-325.4" />
    <path class="st0" d="M-43.6-82.3V-407l13.5-13.7v-68.6l13.5-13.7v-10.3c1.6-0.6,2.7-2.1,2.7-3.9c0-2.3-1.8-4.1-4-4.1s-4,1.8-4,4.1
		c0,1.8,1.1,3.3,2.7,3.9v9.3l-13.6,13.7v68.6L-46.3-408v325.7c-1.6,0.6-2.7,2.1-2.7,3.9c0,2.3,1.8,4.1,4,4.1s4-1.8,4-4.1
		C-40.9-80.2-42.1-81.7-43.6-82.3" />
  </g>
</svg>